REM DIRINDEX 1\2,1\3,1\4,1\5
REM DIRNAME "folder01","folder02","folder03","folder04","folder05"
TITLE ""
FILE "1Q_t_0588-0600.mp3" MP3
  TRACK 01 AUDIO
    TITLE "0:"
    INDEX 01 00:00:00
  TRACK 02 AUDIO
    TITLE "3:cjc172_2698"
    INDEX 01 00:00:10
  TRACK 03 AUDIO
    TITLE "0:"
    INDEX 01 00:01:12
  TRACK 04 AUDIO
    TITLE "4:cjc172_2699"
    INDEX 01 00:01:22
  TRACK 05 AUDIO
    TITLE "0:"
    INDEX 01 00:02:23
  TRACK 06 AUDIO
    TITLE "5:cjc172_2700"
    INDEX 01 00:02:31
  TRACK 07 AUDIO
    TITLE "0:"
    INDEX 01 00:08:59
  TRACK 08 AUDIO
    TITLE "3:cjc172_2701"
    INDEX 01 00:09:33
  TRACK 09 AUDIO
    TITLE "0:"
    INDEX 01 00:10:67
  TRACK 10 AUDIO
    TITLE "4:cjc172_2702"
    INDEX 01 00:11:02
  TRACK 11 AUDIO
    TITLE "0:"
    INDEX 01 00:12:41
  TRACK 12 AUDIO
    TITLE "5:cjc172_2703"
    INDEX 01 00:12:49
  TRACK 13 AUDIO
    TITLE "0:"
    INDEX 01 00:19:08
  TRACK 14 AUDIO
    TITLE "3:cjc172_2704"
    INDEX 01 00:19:53
  TRACK 15 AUDIO
    TITLE "0:"
    INDEX 01 00:21:01
  TRACK 16 AUDIO
    TITLE "4:cjc172_2705"
    INDEX 01 00:21:09
  TRACK 17 AUDIO
    TITLE "0:"
    INDEX 01 00:22:22
  TRACK 18 AUDIO
    TITLE "5:cjc172_2706"
    INDEX 01 00:22:30
  TRACK 19 AUDIO
    TITLE "0:"
    INDEX 01 00:28:34
  TRACK 20 AUDIO
    TITLE "3:cjc172_2707"
    INDEX 01 00:29:04
  TRACK 21 AUDIO
    TITLE "0:"
    INDEX 01 00:30:29
  TRACK 22 AUDIO
    TITLE "4:cjc172_2708"
    INDEX 01 00:30:39
  TRACK 23 AUDIO
    TITLE "0:"
    INDEX 01 00:32:69
  TRACK 24 AUDIO
    TITLE "5:cjc172_2709"
    INDEX 01 00:33:02
  TRACK 25 AUDIO
    TITLE "0:"
    INDEX 01 00:40:67
  TRACK 26 AUDIO
    TITLE "3:cjc172_2710"
    INDEX 01 00:41:37
  TRACK 27 AUDIO
    TITLE "0:"
    INDEX 01 00:42:73
  TRACK 28 AUDIO
    TITLE "4:cjc172_2711"
    INDEX 01 00:43:08
  TRACK 29 AUDIO
    TITLE "0:"
    INDEX 01 00:46:14
  TRACK 30 AUDIO
    TITLE "5:cjc172_2712"
    INDEX 01 00:46:20
  TRACK 31 AUDIO
    TITLE "0:"
    INDEX 01 00:53:28
  TRACK 32 AUDIO
    TITLE "3:cjc172_2713"
    INDEX 01 00:53:71
  TRACK 33 AUDIO
    TITLE "0:"
    INDEX 01 00:55:07
  TRACK 34 AUDIO
    TITLE "4:cjc172_2714"
    INDEX 01 00:55:15
  TRACK 35 AUDIO
    TITLE "0:"
    INDEX 01 00:57:46
  TRACK 36 AUDIO
    TITLE "5:cjc172_2715"
    INDEX 01 00:57:53
  TRACK 37 AUDIO
    TITLE "0:"
    INDEX 01 01:04:32
  TRACK 38 AUDIO
    TITLE "3:cjc172_2716"
    INDEX 01 01:05:02
  TRACK 39 AUDIO
    TITLE "0:"
    INDEX 01 01:06:19
  TRACK 40 AUDIO
    TITLE "4:cjc172_2717"
    INDEX 01 01:06:29
  TRACK 41 AUDIO
    TITLE "0:"
    INDEX 01 01:08:65
  TRACK 42 AUDIO
    TITLE "5:cjc172_2718"
    INDEX 01 01:08:73
  TRACK 43 AUDIO
    TITLE "0:"
    INDEX 01 01:13:19
  TRACK 44 AUDIO
    TITLE "3:cjc172_2719"
    INDEX 01 01:13:66
  TRACK 45 AUDIO
    TITLE "0:"
    INDEX 01 01:15:26
  TRACK 46 AUDIO
    TITLE "4:cjc172_2720"
    INDEX 01 01:15:36
  TRACK 47 AUDIO
    TITLE "0:"
    INDEX 01 01:18:06
  TRACK 48 AUDIO
    TITLE "5:cjc172_2721"
    INDEX 01 01:18:12
  TRACK 49 AUDIO
    TITLE "0:"
    INDEX 01 01:24:03
  TRACK 50 AUDIO
    TITLE "3:cjc172_2722"
    INDEX 01 01:24:48
  TRACK 51 AUDIO
    TITLE "0:"
    INDEX 01 01:25:52
  TRACK 52 AUDIO
    TITLE "4:cjc172_2723"
    INDEX 01 01:25:67
  TRACK 53 AUDIO
    TITLE "0:"
    INDEX 01 01:28:58
  TRACK 54 AUDIO
    TITLE "5:cjc172_2724"
    INDEX 01 01:28:66
  TRACK 55 AUDIO
    TITLE "0:"
    INDEX 01 01:36:28
  TRACK 56 AUDIO
    TITLE "2:cjc172_2725"
    INDEX 01 01:37:04
  TRACK 57 AUDIO
    TITLE "0:"
    INDEX 01 01:38:05
  TRACK 58 AUDIO
    TITLE "3:cjc172_2726"
    INDEX 01 01:38:50
  TRACK 59 AUDIO
    TITLE "0:"
    INDEX 01 01:39:75
  TRACK 60 AUDIO
    TITLE "4:cjc172_2727"
    INDEX 01 01:40:12
  TRACK 61 AUDIO
    TITLE "0:"
    INDEX 01 01:44:12
  TRACK 62 AUDIO
    TITLE "5:cjc172_2728"
    INDEX 01 01:44:20
  TRACK 63 AUDIO
    TITLE "0:"
    INDEX 01 01:49:29
  TRACK 64 AUDIO
    TITLE "3:cjc172_2729"
    INDEX 01 01:50:06
  TRACK 65 AUDIO
    TITLE "0:"
    INDEX 01 01:51:27
  TRACK 66 AUDIO
    TITLE "4:cjc172_2730"
    INDEX 01 01:51:35
  TRACK 67 AUDIO
    TITLE "0:"
    INDEX 01 01:53:36
  TRACK 68 AUDIO
    TITLE "5:cjc172_2731"
    INDEX 01 01:53:44
  TRACK 69 AUDIO
    TITLE "0:"
    INDEX 01 01:59:70
  TRACK 70 AUDIO
    TITLE "3:cjc172_2732"
    INDEX 01 02:00:42
  TRACK 71 AUDIO
    TITLE "0:"
    INDEX 01 02:01:73
  TRACK 72 AUDIO
    TITLE "4:cjc172_2733"
    INDEX 01 02:02:08
  TRACK 73 AUDIO
    TITLE "0:"
    INDEX 01 02:04:32
  TRACK 74 AUDIO
    TITLE "5:cjc172_2734"
    INDEX 01 02:04:40
  TRACK 75 AUDIO
    TITLE "0:"
    INDEX 01 02:11:52
  TRACK 76 AUDIO
    TITLE "3:cjc172_2735"
    INDEX 01 02:12:20
  TRACK 77 AUDIO
    TITLE "0:"
    INDEX 01 02:13:19
  TRACK 78 AUDIO
    TITLE "4:cjc172_2736"
    INDEX 01 02:13:27
  TRACK 79 AUDIO
    TITLE "0:"
    INDEX 01 02:16:51
  TRACK 80 AUDIO
    TITLE "5:cjc172_2737"
    INDEX 01 02:16:57
  TRACK 81 AUDIO
    TITLE "0:"
    INDEX 01 02:22:42
